<svg width="194" height="26" viewBox="0 0 194 26" fill="none" xmlns="http://www.w3.org/2000/svg">
<g clip-path="url(#clip0_1288_3298)">
<path d="M49.978 9.58526L57.191 0.195312H64.4834L55.4574 10.972L65.3132 22.9424H57.6571L49.978 13.0865V22.9424H44.0781V0.195312H49.978V9.58526ZM76.6827 7.4936H82.1392V22.9425H76.6827V21.243C75.5062 22.7151 73.9147 23.4539 71.914 23.4539C70.618 23.4539 69.3731 23.1243 68.1796 22.4707C66.8835 21.7375 65.8719 20.7315 65.1501 19.4525C64.4509 18.2078 64.0986 16.7869 64.0986 15.1839C64.0986 12.5524 65.0136 10.4436 66.8494 8.86335C68.3046 7.60713 69.9757 6.98198 71.8685 6.98198C72.8632 6.98198 73.7498 7.14116 74.5171 7.46519C75.2844 7.78914 76.0064 8.30069 76.6827 9.0055V7.49367V7.4936ZM73.3236 11.6883C72.3458 11.6883 71.5161 12.035 70.8283 12.7227C70.1405 13.4162 69.7938 14.2291 69.7938 15.167C69.7938 16.173 70.1405 17.0199 70.8283 17.7133C71.5047 18.4011 72.3346 18.7477 73.3236 18.7477C74.3013 18.7477 75.131 18.4011 75.8187 17.7133C76.5066 17.0312 76.8534 16.2014 76.8534 15.218C76.8534 14.2348 76.5122 13.4049 75.8302 12.7227C75.1481 12.0463 74.3125 11.6998 73.3236 11.6883ZM84.2951 7.4936H89.7515V9.43746C90.3825 8.70424 90.9679 8.18696 91.5023 7.8857C92.3662 7.39691 93.4349 7.15248 94.6967 7.15248C96.5894 7.15248 98.0728 7.72086 99.1642 8.85197C99.6985 9.3976 100.068 9.97743 100.278 10.6026C100.489 11.2221 100.596 12.0578 100.596 13.1035V22.9424H95.14V15.1156C95.14 13.922 95.0263 13.1149 94.8045 12.6886C94.6283 12.3192 94.3384 12.0293 93.9291 11.8075C93.5257 11.5916 93.088 11.4835 92.6219 11.4835C91.6671 11.4835 90.9054 11.8303 90.3369 12.5238C89.9448 13.0012 89.7515 13.7174 89.7515 14.6666V22.9424H84.2951V7.49353V7.4936ZM114.66 7.4936H120.117V22.9425H114.66V21.243C113.484 22.7151 111.892 23.4539 109.891 23.4539C108.595 23.4539 107.35 23.1243 106.157 22.4707C104.861 21.7375 103.849 20.7315 103.127 19.4525C102.428 18.2078 102.076 16.7869 102.076 15.1839C102.076 12.5524 102.991 10.4436 104.827 8.86335C106.282 7.60713 107.953 6.98198 109.846 6.98198C110.841 6.98198 111.727 7.14116 112.494 7.46519C113.262 7.78914 113.984 8.30069 114.66 9.0055V7.49367L114.66 7.4936ZM111.301 11.6883C110.323 11.6883 109.493 12.035 108.806 12.7227C108.118 13.4162 107.771 14.2291 107.771 15.167C107.771 16.173 108.118 17.0199 108.806 17.7133C109.482 18.4011 110.312 18.7477 111.301 18.7477C112.279 18.7477 113.108 18.4011 113.796 17.7133C114.484 17.0312 114.831 16.2014 114.831 15.218C114.831 14.2348 114.49 13.4049 113.808 12.7227C113.125 12.0463 112.29 11.6998 111.301 11.6883ZM122.272 7.4936H127.729V9.43746C128.36 8.70424 128.945 8.18696 129.48 7.8857C130.344 7.39691 131.412 7.15248 132.674 7.15248C134.567 7.15248 136.05 7.72086 137.142 8.85197C137.676 9.3976 138.045 9.97743 138.255 10.6026C138.466 11.2221 138.574 12.0578 138.574 13.1035V22.9424H133.117V15.1156C133.117 13.922 133.004 13.1149 132.782 12.6886C132.606 12.3192 132.316 12.0293 131.906 11.8075C131.503 11.5916 131.065 11.4835 130.599 11.4835C129.644 11.4835 128.883 11.8303 128.314 12.5238C127.922 13.0012 127.729 13.7174 127.729 14.6666V22.9424H122.272V7.49353V7.4936ZM143.992 16.531C144.97 16.531 145.8 16.8778 146.487 17.5655C147.175 18.2532 147.522 19.0831 147.522 20.0607C147.522 21.0383 147.175 21.8681 146.487 22.556C145.8 23.2437 144.97 23.5904 143.992 23.5904C143.003 23.5904 142.173 23.2437 141.497 22.556C140.809 21.8569 140.462 21.0099 140.462 20.0095C140.462 19.0547 140.809 18.2419 141.497 17.5655C142.185 16.8834 143.014 16.5423 143.992 16.531ZM161.068 7.87432V12.518C160.113 11.8531 159.176 11.5177 158.243 11.5177C157.078 11.5177 156.129 11.9214 155.384 12.7342C154.787 13.3991 154.486 14.246 154.486 15.2691C154.486 16.3776 154.85 17.2755 155.583 17.9519C156.328 18.6397 157.214 18.9863 158.243 18.9863C159.249 18.9863 160.193 18.6454 161.068 17.9634V22.5899C159.801 23.1641 158.528 23.4539 157.237 23.4539C155.64 23.4539 154.14 23.0389 152.741 22.2035C150.11 20.6517 148.791 18.3668 148.791 15.3543C148.791 12.8022 149.712 10.7219 151.553 9.11344C153.145 7.71514 155.089 7.01599 157.385 7.01599C158.709 7.01599 159.937 7.30028 161.068 7.87425V7.87432ZM171.272 6.91377C174.336 6.91377 176.729 7.84597 178.451 9.71024C179.872 11.2449 180.583 13.0751 180.583 15.2066C180.583 17.7189 179.651 19.7764 177.786 21.3737C176.121 22.806 173.927 23.5223 171.199 23.5223C169.465 23.5223 167.851 23.1527 166.339 22.4083C164.929 21.7091 163.827 20.6406 163.031 19.2081C162.343 17.9975 161.996 16.622 161.996 15.0759C161.996 12.6887 162.929 10.6822 164.793 9.0624C166.396 7.67554 168.561 6.95929 171.273 6.91384L171.272 6.91377ZM171.284 11.6201C170.3 11.6201 169.471 11.9669 168.794 12.6546C168.106 13.3537 167.76 14.1722 167.76 15.1157C167.76 16.1274 168.106 16.98 168.794 17.6792C169.471 18.3668 170.306 18.7136 171.301 18.7136C172.267 18.7136 173.097 18.3668 173.785 17.6792C174.472 16.98 174.819 16.1445 174.819 15.167C174.819 14.1779 174.478 13.3423 173.802 12.6602C173.12 11.9782 172.284 11.6314 171.284 11.6201Z" fill="#2A55A3"/>
<path fill-rule="evenodd" clip-rule="evenodd" d="M175.484 3.48673C175.484 3.17376 175.511 2.9463 175.643 2.67702C175.821 2.31542 176.091 2.04547 176.453 1.86737C176.889 1.6527 177.477 1.6525 177.912 1.86737C178.009 1.91511 178.077 1.95699 178.164 2.01537C178.565 2.28351 178.882 2.8327 178.882 3.32681C178.882 3.67218 178.858 3.82934 178.722 4.13626C178.682 4.22501 178.627 4.30911 178.574 4.38836C178.42 4.61892 178.163 4.82248 177.912 4.94611C177.477 5.16078 176.888 5.16091 176.453 4.94611C176.091 4.76747 175.822 4.49853 175.643 4.13646C175.57 3.98798 175.483 3.70733 175.483 3.48667L175.484 3.48673ZM177.103 1.27791C177.1 1.27858 176.869 1.27649 176.637 1.34208C176.484 1.38565 176.375 1.42968 176.243 1.4878C176.022 1.58537 175.725 1.82225 175.566 2.01046C175.323 2.29913 175.163 2.62194 175.086 2.99942C175.052 3.16547 175.035 3.44714 175.056 3.614C175.07 3.72093 175.09 3.85298 175.118 3.95236C175.181 4.17302 175.247 4.32844 175.357 4.51314C175.405 4.59455 175.517 4.75461 175.586 4.82376C175.754 4.99405 175.798 5.04826 176.015 5.19391C176.044 5.2133 176.065 5.22582 176.095 5.24407C176.128 5.26394 176.152 5.2735 176.186 5.29262C176.464 5.44844 176.962 5.57988 177.265 5.53847C177.327 5.53005 177.377 5.53873 177.504 5.51725C177.583 5.50392 177.654 5.49268 177.728 5.47167C177.991 5.39692 178.235 5.2871 178.451 5.12469C178.756 4.89466 179.014 4.57785 179.156 4.22083C179.254 3.97364 179.34 3.66046 179.312 3.32641C179.304 3.22978 179.307 3.16992 179.293 3.08555C179.258 2.88031 179.194 2.642 179.1 2.46949C179.014 2.31239 178.907 2.1186 178.779 1.98992C178.756 1.96649 178.736 1.94999 178.715 1.92454C178.67 1.87127 178.557 1.7737 178.506 1.73344C178.241 1.52476 177.925 1.37312 177.59 1.31063C177.521 1.29777 177.423 1.27946 177.353 1.27764C177.299 1.27636 177.27 1.27636 177.23 1.2707C177.159 1.26081 177.15 1.26653 177.103 1.27798L177.103 1.27791Z" fill="#2A55A3"/>
<path fill-rule="evenodd" clip-rule="evenodd" d="M177.414 3.18747H176.764V2.7677H177.374C177.505 2.7677 177.604 2.86453 177.604 2.94755V2.99758C177.604 3.0963 177.512 3.18747 177.414 3.18747H177.414ZM176.324 4.47675H176.764V3.62724C177.137 3.62724 177.035 3.57465 177.204 3.8271L177.634 4.47675H178.153C178.115 4.40531 178.058 4.32855 178.011 4.25892C177.968 4.19421 177.586 3.64233 177.574 3.59721C177.718 3.52799 177.779 3.53385 177.918 3.35184C178.063 3.16235 178.075 2.89099 177.964 2.67753C177.923 2.6001 177.89 2.56993 177.831 2.5102C177.742 2.42018 177.579 2.33789 177.404 2.33789H176.324V4.47682V4.47675Z" fill="#2A55A3"/>
<path fill-rule="evenodd" clip-rule="evenodd" d="M8.33929 11.0463C8.33929 12.1574 10.2696 14.1935 12.3643 14.1649C10.1424 12.8951 9.23823 12.1573 8.94316 9.8006C6.19356 10.7865 5.33954 10.7176 2.71094 9.37793C4.04567 11.1562 5.92866 11.5624 8.33929 11.0463Z" fill="#0C9253"/>
<path fill-rule="evenodd" clip-rule="evenodd" d="M10.6797 6.45815C11.142 8.73727 14.2369 12.6034 18.1824 12.5493C13.8416 10.4265 12.2158 8.44167 12.2158 3.85211C7.83408 6.50609 5.74828 6.2014 0 3.5332C2.51399 6.8825 6.81563 7.43102 10.6797 6.45815Z" fill="#0C9253"/>
<path fill-rule="evenodd" clip-rule="evenodd" d="M9.47642 9.01829C9.47635 10.7447 12.476 13.9088 15.7309 13.8642C12.3093 11.8912 10.5744 10.7447 10.1757 7.36155C5.90303 8.89345 4.81508 8.50761 0.730469 6.42578C2.80456 9.18898 5.73038 9.82033 9.47635 9.01822L9.47642 9.01829Z" fill="#0C9253"/>
<path fill-rule="evenodd" clip-rule="evenodd" d="M32.8884 11.0463C32.8884 12.1574 30.958 14.1935 28.8633 14.1649C31.0852 12.8951 31.9894 12.1573 32.2844 9.8006C35.0341 10.7865 35.8881 10.7176 38.5167 9.37793C37.182 11.1562 35.299 11.5624 32.8884 11.0463Z" fill="#0C9253"/>
<path fill-rule="evenodd" clip-rule="evenodd" d="M30.5066 6.38295C30.0442 8.66208 26.9494 12.5282 23.0039 12.4741C27.3447 10.3513 28.9706 8.36654 28.9706 3.77691C33.3522 6.43096 35.438 6.1262 41.1863 3.45801C38.6723 6.80731 34.3706 7.35589 30.5066 6.38295Z" fill="#0C9253"/>
<path fill-rule="evenodd" clip-rule="evenodd" d="M31.7116 8.94407C31.7116 10.6705 28.7119 13.8346 25.457 13.79C28.8786 11.817 30.6136 10.6705 31.0123 7.28733C35.2849 8.8193 36.3729 8.43339 40.4575 6.35156C38.3835 9.11477 35.4576 9.74611 31.7117 8.944L31.7116 8.94407Z" fill="#0C9253"/>
<mask id="mask0_1288_3298" style="mask-type:luminance" maskUnits="userSpaceOnUse" x="15" y="0" width="11" height="10">
<path d="M20.5571 0.195312C23.2231 0.195312 25.384 2.32812 25.384 4.95914C25.384 7.5905 23.2231 9.7233 20.5571 9.7233C17.8915 9.7233 15.7306 7.5905 15.7306 4.95914C15.7306 2.32812 17.8914 0.195312 20.5571 0.195312Z" fill="white"/>
</mask>
<g mask="url(#mask0_1288_3298)">
<path d="M20.7427 0.198949C21.5688 1.20381 22.311 3.15325 22.311 5.20727C22.311 6.76812 21.8842 8.39395 20.7456 9.71947C20.6841 9.72182 20.6223 9.7233 20.5602 9.7233C20.5231 9.7233 20.4862 9.72276 20.4493 9.72196V0.196659C20.4862 0.195851 20.5232 0.195312 20.5602 0.195312C20.6214 0.195312 20.6822 0.196794 20.7427 0.199016V0.198949ZM22.0911 5.20727C22.0911 3.28186 21.4291 1.45739 20.6692 0.455634V9.47281C21.7018 8.21242 22.0911 6.68113 22.0911 5.20727Z" fill="#2A55A3"/>
<path d="M20.4467 0.455701C19.6866 1.45746 19.0247 3.28193 19.0247 5.20734C19.0247 6.68119 19.4141 8.21248 20.4467 9.47288V0.455701ZM20.5608 0.195312C20.5962 0.195312 20.6314 0.195851 20.6666 0.196592V9.72202C20.6314 9.72276 20.5962 9.7233 20.5608 9.7233C20.4968 9.7233 20.4334 9.72175 20.37 9.71926C19.2316 8.39375 18.8048 6.76806 18.8048 5.20727C18.8048 3.15345 19.5469 1.20407 20.373 0.199218C20.4353 0.196861 20.4978 0.195312 20.5608 0.195312Z" fill="#2A55A3"/>
<path d="M20.8453 0.203662C21.5986 0.707067 22.3121 1.43928 22.8379 2.29808C23.3113 3.07198 23.6355 3.95179 23.7015 4.86063C23.7678 5.77357 23.5766 6.71829 23.021 7.62046C22.5647 8.36123 21.8609 9.07364 20.8526 9.71435C20.7561 9.72007 20.6588 9.7233 20.5607 9.7233C20.5235 9.7233 20.4863 9.72276 20.4493 9.72196V0.196659C20.4864 0.195851 20.5235 0.195312 20.5607 0.195312C20.6563 0.195312 20.7511 0.198343 20.8453 0.20373L20.8453 0.203662ZM22.6498 2.4102C22.1283 1.55867 21.4174 0.836352 20.67 0.349377V9.5724C21.6822 8.94059 22.3836 8.23753 22.8329 7.50754C23.3626 6.64759 23.5448 5.7463 23.4816 4.87598C23.418 4.0025 23.106 3.15595 22.6498 2.41027V2.4102Z" fill="#2A55A3"/>
<path d="M20.4465 0.349579C19.6992 0.836554 18.9882 1.55887 18.4667 2.4104C18.0106 3.15608 17.6985 4.00263 17.6349 4.87652C17.5718 5.74684 17.754 6.64813 18.2836 7.50815C18.733 8.23767 19.4339 8.94072 20.4465 9.57254V0.349512V0.349579ZM20.5579 0.195447C20.5945 0.195447 20.6309 0.195986 20.6673 0.196794V9.72209C20.6309 9.7229 20.5945 9.72344 20.5579 9.72344C20.4591 9.72344 20.3611 9.72014 20.2637 9.71435C19.2558 9.07412 18.5518 8.3617 18.0956 7.62107C17.54 6.71883 17.3487 5.77411 17.4151 4.86117C17.4809 3.95186 17.8053 3.07211 18.2787 2.29822C18.8045 1.43948 19.5178 0.707336 20.271 0.203932C20.366 0.19841 20.4615 0.195312 20.558 0.195312L20.5579 0.195447Z" fill="#2A55A3"/>
<path d="M16.1152 3.09766H25.0035C25.0345 3.16944 25.0635 3.24209 25.0909 3.31556H16.0277C16.0551 3.24209 16.0842 3.16937 16.1151 3.09766H16.1152Z" fill="#2A55A3"/>
<path d="M15.7423 5.25586H25.3765C25.3719 5.32892 25.3658 5.40157 25.358 5.47376H15.7609C15.7531 5.40157 15.747 5.32892 15.7424 5.25586H15.7423Z" fill="#2A55A3"/>
<path d="M16.422 7.41504H24.6957C24.6505 7.48904 24.6034 7.5617 24.5543 7.63294H16.5633C16.5142 7.56163 16.4671 7.48897 16.422 7.41504Z" fill="#2A55A3"/>
</g>
<path d="M20.557 0.195312C23.223 0.195312 25.3838 2.32812 25.3838 4.95914C25.3838 7.5905 23.223 9.7233 20.557 9.7233C17.8913 9.7233 15.7305 7.5905 15.7305 4.95914C15.7305 2.32812 17.8913 0.195312 20.557 0.195312Z" stroke="#2A55A3" stroke-width="0.5" stroke-miterlimit="2.61313"/>
<path fill-rule="evenodd" clip-rule="evenodd" d="M31.7459 18.0272C30.4802 18.2234 28.022 17.8915 26.825 17.6201C25.3447 17.2845 24.0702 16.663 23.0455 15.9595C21.8127 15.1133 21.0271 13.9825 20.6114 12.8584C20.1953 13.9825 19.4095 15.1132 18.177 15.9595C17.1523 16.663 15.8777 17.2845 14.3974 17.6201C13.2005 17.8915 10.7422 18.2234 9.47656 18.0272C9.52356 17.9321 10.4921 16.6072 10.5587 16.5501C10.8139 16.3328 10.719 16.4104 11.1536 16.4239C11.3777 16.4308 11.5585 16.4424 11.7873 16.4348C15.1008 16.3234 19.354 14.5638 20.2966 11.6217L20.2843 11.5288C19.7663 12.6647 18.6611 13.6603 17.6642 14.3434C16.0431 15.454 13.2904 16.3854 10.8371 16.0992C10.9287 15.9089 11.9404 14.5401 12.2194 14.2421C12.2516 14.2077 12.287 14.1732 12.3227 14.1421C15.3126 15.027 20.2194 11.2555 20.0542 10.6475C20.2542 10.7644 20.4511 10.9584 20.6114 11.2415C20.7564 10.9846 20.9201 10.8043 21.1683 10.6475C21.003 11.2555 25.9099 15.0269 28.8998 14.1421C28.9355 14.1732 28.9708 14.2077 29.0031 14.2421C29.2823 14.5401 30.2937 15.9088 30.3854 16.0992C27.932 16.3854 25.1791 15.454 23.5583 14.3434C22.5475 13.6508 21.4574 12.6571 20.9391 11.5207L20.926 11.6217C21.8688 14.5639 26.1216 16.3229 29.4352 16.4348C29.664 16.4424 29.8447 16.4308 30.0687 16.4239C30.5033 16.4104 30.4084 16.3327 30.6636 16.5501C30.7303 16.6073 31.6988 17.9321 31.7458 18.0272H31.7459Z" fill="#2A55A3"/>
<path fill-rule="evenodd" clip-rule="evenodd" d="M20.5583 11.5726C16.6732 11.5726 13.5234 8.42298 13.5234 4.53775C13.5234 4.32477 13.5334 4.11185 13.5525 3.89974C13.5552 3.86957 13.5803 3.84668 13.6106 3.84668C13.6409 3.84668 13.6659 3.86964 13.6687 3.89974C13.9887 7.45967 16.9824 10.1905 20.5582 10.1905C24.1341 10.1905 27.1277 7.45953 27.4477 3.89974C27.4505 3.86957 27.4755 3.84668 27.5058 3.84668C27.5361 3.84668 27.5612 3.86964 27.564 3.89974C27.5831 4.11185 27.593 4.32477 27.593 4.53775C27.593 8.42291 24.4435 11.5726 20.5582 11.5726H20.5583Z" fill="url(#paint0_linear_1288_3298)"/>
<path d="M1.78906 22.7149V19.8427H2.40364V22.1927H3.38392V22.7149H1.78906ZM5.04766 21.5539C5.03237 21.4321 4.98813 21.3397 4.91507 21.2773C4.84275 21.2151 4.7437 21.1842 4.61853 21.1842C4.49341 21.1842 4.39288 21.2151 4.31787 21.2773C4.24225 21.3397 4.19464 21.432 4.17323 21.5539H5.04766ZM5.60015 21.8913H4.15586C4.17788 22.03 4.22818 22.1337 4.30723 22.202C4.38554 22.2709 4.49193 22.3051 4.62647 22.3051C4.72842 22.3051 4.8167 22.2857 4.89036 22.2462C4.9647 22.2073 5.02625 22.1478 5.0758 22.068L5.52581 22.293C5.42137 22.4618 5.29411 22.587 5.14543 22.6687C4.99601 22.7503 4.81872 22.7912 4.61381 22.7912C4.30245 22.7912 4.05613 22.6981 3.87399 22.5127C3.69252 22.3273 3.60148 22.0775 3.60148 21.7635C3.60148 21.4615 3.69656 21.2131 3.88678 21.0183C4.07687 20.8235 4.32056 20.7263 4.61785 20.7263C4.92389 20.7263 5.16563 20.8175 5.34367 21.0003C5.5211 21.1823 5.61012 21.4314 5.61012 21.7461C5.61012 21.7635 5.60951 21.7814 5.6081 21.8023C5.60682 21.8224 5.60412 21.8517 5.60015 21.8913ZM6.09285 22.7149V21.2285H5.82377V20.7907H6.09285V20.1518H6.65133V20.7907H6.92041V21.2285H6.65133V22.7149H6.09285ZM7.30133 21.0719L7.67976 19.8427H8.28161L7.67565 21.0719H7.30133ZM8.4952 22.3774L8.92507 22.1565C8.93908 22.2308 8.97786 22.2898 9.04089 22.3325C9.10311 22.3762 9.18081 22.3976 9.27387 22.3976C9.36558 22.3976 9.43723 22.3809 9.48948 22.3473C9.54174 22.3144 9.5678 22.2683 9.5678 22.2093C9.5678 22.1162 9.47474 22.0387 9.28929 21.9757C9.23172 21.9563 9.18613 21.9402 9.15199 21.9269C8.92581 21.8419 8.76905 21.7561 8.68199 21.6698C8.59506 21.5834 8.55156 21.477 8.55156 21.3504C8.55156 21.1616 8.62509 21.0097 8.77309 20.8932C8.92117 20.7767 9.11597 20.7184 9.35818 20.7184C9.53029 20.7184 9.68031 20.7532 9.80616 20.8221C9.93262 20.8911 10.0245 20.9895 10.082 21.1161L9.67217 21.321C9.65021 21.2487 9.61136 21.1937 9.55635 21.1562C9.50154 21.1188 9.43258 21.1001 9.35017 21.1001C9.26781 21.1001 9.20155 21.1167 9.15004 21.151C9.09914 21.1851 9.07375 21.23 9.07375 21.2848C9.07375 21.3806 9.20021 21.4697 9.454 21.5527C9.4841 21.5614 9.50692 21.5687 9.52302 21.5741C9.73385 21.643 9.8838 21.724 9.97289 21.8158C10.062 21.9082 10.1061 22.0253 10.1061 22.1679C10.1061 22.3588 10.0325 22.5101 9.88448 22.6226C9.73654 22.735 9.53709 22.7912 9.28599 22.7912C9.08708 22.7912 8.91773 22.7544 8.77707 22.6809C8.63586 22.6065 8.5422 22.5054 8.49527 22.3775L8.4952 22.3774ZM13.224 21.2003H14.5317C14.5344 21.2171 14.5364 21.2358 14.5371 21.2554C14.5377 21.2747 14.5377 21.3049 14.5377 21.3456C14.5377 21.7755 14.4152 22.1243 14.1695 22.3907C13.9237 22.6579 13.6057 22.7912 13.2167 22.7912C12.7708 22.7912 12.4033 22.6492 12.1148 22.3648C11.8262 22.0802 11.6815 21.7187 11.6815 21.2807C11.6815 20.847 11.8268 20.488 12.1168 20.2041C12.4066 19.9201 12.7735 19.7782 13.2167 19.7782C13.4505 19.7782 13.6647 19.8271 13.8595 19.9256C14.0543 20.0233 14.2283 20.17 14.3811 20.3655L13.9679 20.6701C13.8649 20.5423 13.7564 20.4505 13.6426 20.3934C13.5288 20.3366 13.3969 20.3085 13.2483 20.3085C12.9643 20.3085 12.7374 20.3969 12.5673 20.5736C12.3973 20.7497 12.3123 20.9861 12.3123 21.2813C12.3123 21.572 12.3973 21.8062 12.568 21.985C12.7387 22.1637 12.9617 22.2529 13.2362 22.2529C13.4377 22.2529 13.6011 22.2053 13.727 22.1102C13.8521 22.0151 13.9151 21.8912 13.9151 21.7379V21.7065H13.2241V21.2003L13.224 21.2003ZM15.5152 21.2855C15.5713 21.098 15.6518 20.9581 15.7569 20.8656C15.8626 20.7726 15.9925 20.7263 16.1485 20.7263C16.1833 20.7263 16.2415 20.733 16.3225 20.7458C16.3386 20.7485 16.3502 20.7505 16.3581 20.7518L16.2737 21.3531C16.2322 21.3356 16.19 21.3223 16.1471 21.3136C16.105 21.3049 16.0601 21.3008 16.0132 21.3008C15.8432 21.3008 15.7206 21.3444 15.6463 21.4314C15.572 21.5184 15.5344 21.6644 15.5344 21.8686V22.7148H14.976V20.7907H15.5264L15.5151 21.2854L15.5152 21.2855ZM18.0661 21.7555C18.0661 21.5988 18.0206 21.4743 17.9288 21.3805C17.837 21.2875 17.7145 21.2405 17.5599 21.2405C17.4059 21.2405 17.2834 21.2867 17.1931 21.3799C17.1026 21.4724 17.0578 21.5975 17.0578 21.7555C17.0578 21.9128 17.1026 22.038 17.1931 22.1318C17.2834 22.2261 17.4059 22.273 17.5599 22.273C17.7133 22.273 17.8357 22.2261 17.9275 22.1318C18.0199 22.0381 18.0661 21.9128 18.0661 21.7555ZM18.6366 21.7595C18.6366 22.0554 18.5354 22.3011 18.3332 22.4974C18.131 22.6934 17.8753 22.7912 17.5646 22.7912C17.2519 22.7912 16.9942 22.6935 16.7912 22.4974C16.5885 22.3011 16.4873 22.0554 16.4873 21.7595C16.4873 21.4654 16.589 21.2198 16.7932 21.0223C16.9975 20.8247 17.2545 20.7263 17.5646 20.7263C17.8765 20.7263 18.133 20.8235 18.3344 21.0183C18.5361 21.2131 18.6366 21.4603 18.6366 21.7595ZM20.7288 20.7907L21.0073 21.7869C21.0127 21.8071 21.0194 21.8412 21.0273 21.8913C21.0361 21.9409 21.0515 22.0426 21.0735 22.1974C21.0856 22.1371 21.1004 22.0735 21.1177 22.0065C21.1352 21.9402 21.1572 21.8651 21.1833 21.7829L21.4826 20.7907H22.0906L21.4237 22.7148H20.8291L20.5407 21.7186C20.5352 21.6999 20.5266 21.6703 20.5152 21.6302C20.4716 21.4794 20.4402 21.357 20.4208 21.2612C20.4034 21.3504 20.3866 21.4314 20.3705 21.5044C20.3538 21.578 20.3363 21.6463 20.3183 21.7105L20.0217 22.7148H19.4273L18.7603 20.7907H19.3703L19.6649 21.746C19.691 21.8324 19.7125 21.9101 19.7293 21.9804C19.7466 22.0499 19.7607 22.1216 19.7728 22.1952C19.7829 22.1156 19.7955 22.0386 19.8103 21.9643C19.8244 21.8907 19.8411 21.819 19.8612 21.7501L20.1182 20.7907H20.729H20.7288ZM25.0473 21.2003H26.355C26.3576 21.2171 26.3596 21.2358 26.3603 21.2554C26.3609 21.2747 26.3609 21.3049 26.3609 21.3456C26.3609 21.7755 26.2384 22.1243 25.9928 22.3907C25.7469 22.6579 25.429 22.7912 25.0399 22.7912C24.594 22.7912 24.2264 22.6492 23.938 22.3648C23.6494 22.0802 23.5048 21.7187 23.5048 21.2807C23.5048 20.847 23.6499 20.488 23.94 20.2041C24.2298 19.9201 24.5967 19.7782 25.0399 19.7782C25.2736 19.7782 25.4879 19.8271 25.6827 19.9256C25.8775 20.0233 26.0515 20.17 26.2043 20.3655L25.7911 20.6701C25.6881 20.5423 25.5795 20.4505 25.4657 20.3934C25.3519 20.3366 25.22 20.3085 25.0714 20.3085C24.7875 20.3085 24.5606 20.3969 24.3906 20.5736C24.2204 20.7497 24.1355 20.9861 24.1355 21.2813C24.1355 21.572 24.2205 21.8062 24.3912 21.985C24.5619 22.1637 24.7849 22.2529 25.0594 22.2529C25.2609 22.2529 25.4242 22.2053 25.5502 22.1102C25.6753 22.0151 25.7383 21.8912 25.7383 21.7379V21.7065H25.0474V21.2003L25.0473 21.2003ZM26.8196 22.7149V19.6738H27.378V22.7149H26.8196ZM29.3992 21.7555C29.3992 21.5988 29.3538 21.4743 29.2619 21.3805C29.1701 21.2875 29.0477 21.2405 28.8931 21.2405C28.7391 21.2405 28.6166 21.2867 28.5262 21.3799C28.4357 21.4724 28.391 21.5975 28.391 21.7555C28.391 21.9128 28.4357 22.038 28.5262 22.1318C28.6166 22.2261 28.7391 22.273 28.8931 22.273C29.0464 22.273 29.1689 22.2261 29.2607 22.1318C29.3531 22.0381 29.3992 21.9128 29.3992 21.7555ZM29.9697 21.7595C29.9697 22.0554 29.8685 22.3011 29.6663 22.4974C29.4641 22.6934 29.2084 22.7912 28.8978 22.7912C28.5851 22.7912 28.3273 22.6935 28.1244 22.4974C27.9216 22.3011 27.8204 22.0554 27.8204 21.7595C27.8204 21.4654 27.9222 21.2198 28.1264 21.0223C28.3307 20.8247 28.5877 20.7263 28.8978 20.7263C29.2097 20.7263 29.4662 20.8235 29.6676 21.0183C29.8692 21.2131 29.9697 21.4603 29.9697 21.7595ZM30.8997 21.7494C30.8997 21.9235 30.9424 22.0594 31.0281 22.1558C31.1138 22.2529 31.233 22.3011 31.3863 22.3011C31.5396 22.3011 31.6588 22.2529 31.7445 22.1558C31.8302 22.0594 31.8731 21.9234 31.8731 21.7494C31.8731 21.5753 31.8296 21.4388 31.7424 21.3383C31.6554 21.2385 31.5356 21.1884 31.3823 21.1884C31.2343 21.1884 31.1172 21.2385 31.03 21.3397C30.943 21.44 30.8995 21.5767 30.8995 21.7493L30.8997 21.7494ZM30.3907 22.7149V19.6738H30.9252V20.7712C30.9252 20.8315 30.9232 20.8911 30.9185 20.9507C30.9138 21.0096 30.9077 21.0678 30.8997 21.124C30.9914 20.9855 31.0906 20.8843 31.1976 20.8213C31.3054 20.7579 31.4279 20.7262 31.5666 20.7262C31.8411 20.7262 32.0554 20.8166 32.2092 20.9981C32.3626 21.179 32.4396 21.4313 32.4396 21.756C32.4396 22.068 32.3619 22.3191 32.206 22.5079C32.0507 22.6968 31.8457 22.7911 31.592 22.7911C31.4393 22.7911 31.3094 22.763 31.2029 22.7061C31.0958 22.6491 31.0047 22.5601 30.9292 22.4382L30.9331 22.7148H30.3907V22.7149ZM34.2835 21.7494C34.2835 21.5767 34.24 21.4401 34.1529 21.3397C34.0658 21.2386 33.9488 21.1884 33.8006 21.1884C33.6487 21.1884 33.5295 21.2386 33.4426 21.3384C33.3555 21.4388 33.312 21.5754 33.312 21.7495C33.312 21.9235 33.3547 22.0595 33.4405 22.1558C33.5262 22.253 33.6447 22.3011 33.7967 22.3011C33.9514 22.3011 34.0712 22.253 34.1563 22.1558C34.2413 22.0595 34.2835 21.9235 34.2835 21.7495V21.7494ZM34.7943 22.7149H34.2519L34.26 22.4383C34.1843 22.5603 34.0933 22.6491 33.9862 22.7062C33.8796 22.7631 33.7497 22.7912 33.5972 22.7912C33.3422 22.7912 33.1365 22.6961 32.9799 22.5067C32.8239 22.3172 32.7455 22.0668 32.7455 21.756C32.7455 21.4313 32.8224 21.179 32.9758 20.9981C33.1298 20.8166 33.3434 20.7262 33.6167 20.7262C33.7592 20.7262 33.8843 20.7585 33.9922 20.822C34.1 20.8864 34.1911 20.9814 34.264 21.1079V20.7907H34.7943V22.7148L34.7943 22.7149ZM35.3399 22.7149V19.6738H35.8984V22.7149H35.3399ZM36.4855 22.7149V19.6738H37.044V22.7149H36.4855ZM38.085 22.5663L37.3097 20.7907H37.9558L38.2892 21.6711C38.3112 21.7259 38.3293 21.7896 38.3441 21.8605C38.3582 21.9322 38.3695 22.0113 38.3776 22.0989C38.3903 22.0286 38.407 21.9562 38.4265 21.8833C38.4458 21.8096 38.47 21.732 38.4988 21.6495L38.7913 20.7907H39.4307L38.285 23.5905H37.6671L38.085 22.5662L38.085 22.5663Z" fill="#2A55A3"/>
</g>
<defs>
<linearGradient id="paint0_linear_1288_3298" x1="13.5235" y1="7.70962" x2="27.5932" y2="7.70962" gradientUnits="userSpaceOnUse">
<stop stop-color="#DC9617"/>
<stop offset="0.388235" stop-color="#FFCF25"/>
<stop offset="0.6" stop-color="#FFFF90"/>
<stop offset="0.85098" stop-color="#DA9917"/>
<stop offset="1" stop-color="#ECBF26"/>
</linearGradient>
<clipPath id="clip0_1288_3298">
<rect width="193.737" height="25.3753" fill="white"/>
</clipPath>
</defs>
</svg>
